<mxfile host="app.diagrams.net" modified="2022-03-15T08:53:35.097Z" agent="5.0 (Windows NT 10.0; Win64; x64) AppleWebKit/537.36 (KHTML, like Gecko) Chrome/99.0.4844.51 Safari/537.36 Edg/99.0.1150.39" etag="7dbIXoHvPgNUx0dBeUg3" version="17.1.2" type="github">
  <diagram id="3-gKo_FXOnLSicPvTQLV" name="第 1 页">
    <mxGraphModel dx="2662" dy="2222" grid="1" gridSize="10" guides="1" tooltips="1" connect="1" arrows="1" fold="1" page="1" pageScale="1" pageWidth="827" pageHeight="1169" math="0" shadow="0">
      <root>
        <mxCell id="0" />
        <mxCell id="1" parent="0" />
        <mxCell id="pEeEYbQwiOl_u1cgjXPQ-3" value="" style="edgeStyle=orthogonalEdgeStyle;rounded=0;orthogonalLoop=1;jettySize=auto;html=1;" edge="1" parent="1" source="pEeEYbQwiOl_u1cgjXPQ-1">
          <mxGeometry relative="1" as="geometry">
            <mxPoint x="180" y="50" as="targetPoint" />
          </mxGeometry>
        </mxCell>
        <mxCell id="pEeEYbQwiOl_u1cgjXPQ-5" value="" style="edgeStyle=orthogonalEdgeStyle;rounded=0;orthogonalLoop=1;jettySize=auto;html=1;" edge="1" parent="1" source="pEeEYbQwiOl_u1cgjXPQ-1" target="pEeEYbQwiOl_u1cgjXPQ-4">
          <mxGeometry relative="1" as="geometry" />
        </mxCell>
        <mxCell id="pEeEYbQwiOl_u1cgjXPQ-7" value="" style="edgeStyle=orthogonalEdgeStyle;rounded=0;orthogonalLoop=1;jettySize=auto;html=1;" edge="1" parent="1" source="pEeEYbQwiOl_u1cgjXPQ-1" target="pEeEYbQwiOl_u1cgjXPQ-6">
          <mxGeometry relative="1" as="geometry" />
        </mxCell>
        <mxCell id="pEeEYbQwiOl_u1cgjXPQ-9" value="" style="edgeStyle=orthogonalEdgeStyle;rounded=0;orthogonalLoop=1;jettySize=auto;html=1;" edge="1" parent="1" source="pEeEYbQwiOl_u1cgjXPQ-1" target="pEeEYbQwiOl_u1cgjXPQ-8">
          <mxGeometry relative="1" as="geometry" />
        </mxCell>
        <mxCell id="pEeEYbQwiOl_u1cgjXPQ-11" value="" style="edgeStyle=orthogonalEdgeStyle;rounded=0;orthogonalLoop=1;jettySize=auto;html=1;" edge="1" parent="1" source="pEeEYbQwiOl_u1cgjXPQ-1" target="pEeEYbQwiOl_u1cgjXPQ-10">
          <mxGeometry relative="1" as="geometry" />
        </mxCell>
        <mxCell id="pEeEYbQwiOl_u1cgjXPQ-1" value="书店" style="rounded=0;whiteSpace=wrap;html=1;" vertex="1" parent="1">
          <mxGeometry x="120" y="130" width="120" height="60" as="geometry" />
        </mxCell>
        <mxCell id="pEeEYbQwiOl_u1cgjXPQ-4" value="图书列表" style="ellipse;whiteSpace=wrap;html=1;rounded=0;" vertex="1" parent="1">
          <mxGeometry x="120" y="-10" width="120" height="60" as="geometry" />
        </mxCell>
        <mxCell id="pEeEYbQwiOl_u1cgjXPQ-6" value="新书" style="ellipse;whiteSpace=wrap;html=1;rounded=0;" vertex="1" parent="1">
          <mxGeometry x="120" y="270" width="120" height="60" as="geometry" />
        </mxCell>
        <mxCell id="pEeEYbQwiOl_u1cgjXPQ-13" value="" style="edgeStyle=orthogonalEdgeStyle;rounded=0;orthogonalLoop=1;jettySize=auto;html=1;" edge="1" parent="1" source="pEeEYbQwiOl_u1cgjXPQ-8" target="pEeEYbQwiOl_u1cgjXPQ-12">
          <mxGeometry relative="1" as="geometry" />
        </mxCell>
        <mxCell id="pEeEYbQwiOl_u1cgjXPQ-8" value="包含" style="rhombus;whiteSpace=wrap;html=1;rounded=0;" vertex="1" parent="1">
          <mxGeometry x="340" y="120" width="80" height="80" as="geometry" />
        </mxCell>
        <mxCell id="pEeEYbQwiOl_u1cgjXPQ-10" value="最近活动" style="ellipse;whiteSpace=wrap;html=1;rounded=0;" vertex="1" parent="1">
          <mxGeometry x="-80" y="130" width="120" height="60" as="geometry" />
        </mxCell>
        <mxCell id="pEeEYbQwiOl_u1cgjXPQ-15" value="" style="edgeStyle=orthogonalEdgeStyle;rounded=0;orthogonalLoop=1;jettySize=auto;html=1;" edge="1" parent="1" source="pEeEYbQwiOl_u1cgjXPQ-12" target="pEeEYbQwiOl_u1cgjXPQ-14">
          <mxGeometry relative="1" as="geometry" />
        </mxCell>
        <mxCell id="pEeEYbQwiOl_u1cgjXPQ-17" value="" style="edgeStyle=orthogonalEdgeStyle;rounded=0;orthogonalLoop=1;jettySize=auto;html=1;" edge="1" parent="1" source="pEeEYbQwiOl_u1cgjXPQ-12" target="pEeEYbQwiOl_u1cgjXPQ-16">
          <mxGeometry relative="1" as="geometry">
            <Array as="points">
              <mxPoint x="480" y="240" />
              <mxPoint x="440" y="240" />
            </Array>
          </mxGeometry>
        </mxCell>
        <mxCell id="pEeEYbQwiOl_u1cgjXPQ-19" value="" style="edgeStyle=orthogonalEdgeStyle;rounded=0;orthogonalLoop=1;jettySize=auto;html=1;startArrow=none;" edge="1" parent="1" source="pEeEYbQwiOl_u1cgjXPQ-42" target="pEeEYbQwiOl_u1cgjXPQ-18">
          <mxGeometry relative="1" as="geometry" />
        </mxCell>
        <mxCell id="pEeEYbQwiOl_u1cgjXPQ-20" style="edgeStyle=orthogonalEdgeStyle;rounded=0;orthogonalLoop=1;jettySize=auto;html=1;exitX=0.75;exitY=1;exitDx=0;exitDy=0;" edge="1" parent="1" source="pEeEYbQwiOl_u1cgjXPQ-12">
          <mxGeometry relative="1" as="geometry">
            <mxPoint x="660" y="290" as="targetPoint" />
          </mxGeometry>
        </mxCell>
        <mxCell id="pEeEYbQwiOl_u1cgjXPQ-22" style="edgeStyle=orthogonalEdgeStyle;rounded=0;orthogonalLoop=1;jettySize=auto;html=1;exitX=0.75;exitY=0;exitDx=0;exitDy=0;" edge="1" parent="1" source="pEeEYbQwiOl_u1cgjXPQ-12">
          <mxGeometry relative="1" as="geometry">
            <mxPoint x="560" y="40" as="targetPoint" />
          </mxGeometry>
        </mxCell>
        <mxCell id="pEeEYbQwiOl_u1cgjXPQ-31" style="edgeStyle=orthogonalEdgeStyle;rounded=0;orthogonalLoop=1;jettySize=auto;html=1;exitX=0.25;exitY=1;exitDx=0;exitDy=0;" edge="1" parent="1" source="pEeEYbQwiOl_u1cgjXPQ-12">
          <mxGeometry relative="1" as="geometry">
            <mxPoint x="560" y="370" as="targetPoint" />
          </mxGeometry>
        </mxCell>
        <mxCell id="pEeEYbQwiOl_u1cgjXPQ-12" value="书" style="whiteSpace=wrap;html=1;rounded=0;" vertex="1" parent="1">
          <mxGeometry x="480" y="130" width="120" height="60" as="geometry" />
        </mxCell>
        <mxCell id="pEeEYbQwiOl_u1cgjXPQ-14" value="类型" style="ellipse;whiteSpace=wrap;html=1;rounded=0;" vertex="1" parent="1">
          <mxGeometry x="380" y="-10" width="120" height="60" as="geometry" />
        </mxCell>
        <mxCell id="pEeEYbQwiOl_u1cgjXPQ-16" value="价格" style="ellipse;whiteSpace=wrap;html=1;rounded=0;" vertex="1" parent="1">
          <mxGeometry x="380" y="280" width="120" height="60" as="geometry" />
        </mxCell>
        <mxCell id="pEeEYbQwiOl_u1cgjXPQ-25" value="" style="edgeStyle=orthogonalEdgeStyle;rounded=0;orthogonalLoop=1;jettySize=auto;html=1;" edge="1" parent="1" source="pEeEYbQwiOl_u1cgjXPQ-18">
          <mxGeometry relative="1" as="geometry">
            <mxPoint x="1440" y="440" as="targetPoint" />
          </mxGeometry>
        </mxCell>
        <mxCell id="pEeEYbQwiOl_u1cgjXPQ-45" value="" style="edgeStyle=orthogonalEdgeStyle;rounded=0;orthogonalLoop=1;jettySize=auto;html=1;" edge="1" parent="1" source="pEeEYbQwiOl_u1cgjXPQ-18" target="pEeEYbQwiOl_u1cgjXPQ-44">
          <mxGeometry relative="1" as="geometry" />
        </mxCell>
        <mxCell id="pEeEYbQwiOl_u1cgjXPQ-47" value="" style="edgeStyle=orthogonalEdgeStyle;rounded=0;orthogonalLoop=1;jettySize=auto;html=1;" edge="1" parent="1" source="pEeEYbQwiOl_u1cgjXPQ-18" target="pEeEYbQwiOl_u1cgjXPQ-46">
          <mxGeometry relative="1" as="geometry" />
        </mxCell>
        <mxCell id="pEeEYbQwiOl_u1cgjXPQ-18" value="订单" style="whiteSpace=wrap;html=1;rounded=0;" vertex="1" parent="1">
          <mxGeometry x="1090" y="130" width="120" height="60" as="geometry" />
        </mxCell>
        <mxCell id="pEeEYbQwiOl_u1cgjXPQ-21" value="编号" style="ellipse;whiteSpace=wrap;html=1;" vertex="1" parent="1">
          <mxGeometry x="610" y="280" width="120" height="60" as="geometry" />
        </mxCell>
        <mxCell id="pEeEYbQwiOl_u1cgjXPQ-23" value="作者" style="ellipse;whiteSpace=wrap;html=1;" vertex="1" parent="1">
          <mxGeometry x="530" y="-20" width="120" height="60" as="geometry" />
        </mxCell>
        <mxCell id="pEeEYbQwiOl_u1cgjXPQ-28" value="" style="endArrow=classic;html=1;rounded=0;" edge="1" parent="1">
          <mxGeometry width="50" height="50" relative="1" as="geometry">
            <mxPoint x="600" y="160" as="sourcePoint" />
            <mxPoint x="650" y="110" as="targetPoint" />
          </mxGeometry>
        </mxCell>
        <mxCell id="pEeEYbQwiOl_u1cgjXPQ-29" value="包含" style="rhombus;whiteSpace=wrap;html=1;" vertex="1" parent="1">
          <mxGeometry x="650" y="60" width="80" height="100" as="geometry" />
        </mxCell>
        <mxCell id="pEeEYbQwiOl_u1cgjXPQ-32" value="出版社" style="ellipse;whiteSpace=wrap;html=1;" vertex="1" parent="1">
          <mxGeometry x="500" y="370" width="120" height="80" as="geometry" />
        </mxCell>
        <mxCell id="pEeEYbQwiOl_u1cgjXPQ-34" value="" style="endArrow=classic;html=1;rounded=0;" edge="1" parent="1" source="pEeEYbQwiOl_u1cgjXPQ-29">
          <mxGeometry width="50" height="50" relative="1" as="geometry">
            <mxPoint x="690" y="39.289321881345245" as="sourcePoint" />
            <mxPoint x="690" y="-10.710678118654755" as="targetPoint" />
          </mxGeometry>
        </mxCell>
        <mxCell id="pEeEYbQwiOl_u1cgjXPQ-37" value="" style="edgeStyle=orthogonalEdgeStyle;rounded=0;orthogonalLoop=1;jettySize=auto;html=1;" edge="1" parent="1" source="pEeEYbQwiOl_u1cgjXPQ-35" target="pEeEYbQwiOl_u1cgjXPQ-36">
          <mxGeometry relative="1" as="geometry" />
        </mxCell>
        <mxCell id="pEeEYbQwiOl_u1cgjXPQ-39" value="" style="edgeStyle=orthogonalEdgeStyle;rounded=0;orthogonalLoop=1;jettySize=auto;html=1;" edge="1" parent="1" source="pEeEYbQwiOl_u1cgjXPQ-35" target="pEeEYbQwiOl_u1cgjXPQ-38">
          <mxGeometry relative="1" as="geometry" />
        </mxCell>
        <mxCell id="pEeEYbQwiOl_u1cgjXPQ-41" value="" style="edgeStyle=orthogonalEdgeStyle;rounded=0;orthogonalLoop=1;jettySize=auto;html=1;" edge="1" parent="1" source="pEeEYbQwiOl_u1cgjXPQ-35" target="pEeEYbQwiOl_u1cgjXPQ-40">
          <mxGeometry relative="1" as="geometry" />
        </mxCell>
        <mxCell id="pEeEYbQwiOl_u1cgjXPQ-35" value="图书类型" style="rounded=0;whiteSpace=wrap;html=1;" vertex="1" parent="1">
          <mxGeometry x="690" y="-70" width="120" height="60" as="geometry" />
        </mxCell>
        <mxCell id="pEeEYbQwiOl_u1cgjXPQ-36" value="类别编号" style="ellipse;whiteSpace=wrap;html=1;rounded=0;" vertex="1" parent="1">
          <mxGeometry x="690" y="-210" width="120" height="60" as="geometry" />
        </mxCell>
        <mxCell id="pEeEYbQwiOl_u1cgjXPQ-38" value="类别名称" style="ellipse;whiteSpace=wrap;html=1;rounded=0;" vertex="1" parent="1">
          <mxGeometry x="890" y="-70" width="120" height="60" as="geometry" />
        </mxCell>
        <mxCell id="pEeEYbQwiOl_u1cgjXPQ-40" value="备注" style="ellipse;whiteSpace=wrap;html=1;rounded=0;" vertex="1" parent="1">
          <mxGeometry x="740" y="40" width="120" height="60" as="geometry" />
        </mxCell>
        <mxCell id="pEeEYbQwiOl_u1cgjXPQ-42" value="包含" style="rhombus;whiteSpace=wrap;html=1;" vertex="1" parent="1">
          <mxGeometry x="930" y="105" width="80" height="110" as="geometry" />
        </mxCell>
        <mxCell id="pEeEYbQwiOl_u1cgjXPQ-43" value="" style="edgeStyle=orthogonalEdgeStyle;rounded=0;orthogonalLoop=1;jettySize=auto;html=1;endArrow=none;" edge="1" parent="1" source="pEeEYbQwiOl_u1cgjXPQ-12" target="pEeEYbQwiOl_u1cgjXPQ-42">
          <mxGeometry relative="1" as="geometry">
            <mxPoint x="600" y="160" as="sourcePoint" />
            <mxPoint x="1320" y="160" as="targetPoint" />
          </mxGeometry>
        </mxCell>
        <mxCell id="pEeEYbQwiOl_u1cgjXPQ-44" value="订单状态" style="ellipse;whiteSpace=wrap;html=1;rounded=0;" vertex="1" parent="1">
          <mxGeometry x="1090" y="270" width="120" height="60" as="geometry" />
        </mxCell>
        <mxCell id="pEeEYbQwiOl_u1cgjXPQ-46" value="订单号" style="ellipse;whiteSpace=wrap;html=1;rounded=0;" vertex="1" parent="1">
          <mxGeometry x="1090" y="-10" width="120" height="60" as="geometry" />
        </mxCell>
        <mxCell id="pEeEYbQwiOl_u1cgjXPQ-50" value="" style="edgeStyle=orthogonalEdgeStyle;rounded=0;orthogonalLoop=1;jettySize=auto;html=1;" edge="1" parent="1" source="pEeEYbQwiOl_u1cgjXPQ-48" target="pEeEYbQwiOl_u1cgjXPQ-49">
          <mxGeometry relative="1" as="geometry" />
        </mxCell>
        <mxCell id="pEeEYbQwiOl_u1cgjXPQ-48" value="管理" style="rhombus;whiteSpace=wrap;html=1;" vertex="1" parent="1">
          <mxGeometry x="1400" y="440" width="80" height="80" as="geometry" />
        </mxCell>
        <mxCell id="pEeEYbQwiOl_u1cgjXPQ-52" value="" style="edgeStyle=orthogonalEdgeStyle;rounded=0;orthogonalLoop=1;jettySize=auto;html=1;" edge="1" parent="1" source="pEeEYbQwiOl_u1cgjXPQ-49" target="pEeEYbQwiOl_u1cgjXPQ-51">
          <mxGeometry relative="1" as="geometry" />
        </mxCell>
        <mxCell id="pEeEYbQwiOl_u1cgjXPQ-54" value="" style="edgeStyle=orthogonalEdgeStyle;rounded=0;orthogonalLoop=1;jettySize=auto;html=1;" edge="1" parent="1" source="pEeEYbQwiOl_u1cgjXPQ-49" target="pEeEYbQwiOl_u1cgjXPQ-53">
          <mxGeometry relative="1" as="geometry" />
        </mxCell>
        <mxCell id="pEeEYbQwiOl_u1cgjXPQ-56" value="" style="edgeStyle=orthogonalEdgeStyle;rounded=0;orthogonalLoop=1;jettySize=auto;html=1;" edge="1" parent="1" source="pEeEYbQwiOl_u1cgjXPQ-49" target="pEeEYbQwiOl_u1cgjXPQ-55">
          <mxGeometry relative="1" as="geometry" />
        </mxCell>
        <mxCell id="pEeEYbQwiOl_u1cgjXPQ-57" style="edgeStyle=orthogonalEdgeStyle;rounded=0;orthogonalLoop=1;jettySize=auto;html=1;exitX=1;exitY=0;exitDx=0;exitDy=0;" edge="1" parent="1" source="pEeEYbQwiOl_u1cgjXPQ-49">
          <mxGeometry relative="1" as="geometry">
            <mxPoint x="1280" y="420" as="targetPoint" />
          </mxGeometry>
        </mxCell>
        <mxCell id="pEeEYbQwiOl_u1cgjXPQ-59" style="edgeStyle=orthogonalEdgeStyle;rounded=0;orthogonalLoop=1;jettySize=auto;html=1;exitX=0;exitY=1;exitDx=0;exitDy=0;" edge="1" parent="1" source="pEeEYbQwiOl_u1cgjXPQ-49">
          <mxGeometry relative="1" as="geometry">
            <mxPoint x="920" y="610" as="targetPoint" />
          </mxGeometry>
        </mxCell>
        <mxCell id="pEeEYbQwiOl_u1cgjXPQ-61" style="edgeStyle=orthogonalEdgeStyle;rounded=0;orthogonalLoop=1;jettySize=auto;html=1;exitX=1;exitY=1;exitDx=0;exitDy=0;" edge="1" parent="1" source="pEeEYbQwiOl_u1cgjXPQ-49">
          <mxGeometry relative="1" as="geometry">
            <mxPoint x="1320" y="620" as="targetPoint" />
          </mxGeometry>
        </mxCell>
        <mxCell id="pEeEYbQwiOl_u1cgjXPQ-63" style="edgeStyle=orthogonalEdgeStyle;rounded=0;orthogonalLoop=1;jettySize=auto;html=1;exitX=0;exitY=0;exitDx=0;exitDy=0;" edge="1" parent="1" source="pEeEYbQwiOl_u1cgjXPQ-49">
          <mxGeometry relative="1" as="geometry">
            <mxPoint x="880" y="400" as="targetPoint" />
          </mxGeometry>
        </mxCell>
        <mxCell id="pEeEYbQwiOl_u1cgjXPQ-49" value="会员" style="whiteSpace=wrap;html=1;" vertex="1" parent="1">
          <mxGeometry x="1040" y="450" width="120" height="60" as="geometry" />
        </mxCell>
        <mxCell id="pEeEYbQwiOl_u1cgjXPQ-66" value="" style="edgeStyle=orthogonalEdgeStyle;rounded=0;orthogonalLoop=1;jettySize=auto;html=1;" edge="1" parent="1" source="pEeEYbQwiOl_u1cgjXPQ-51" target="pEeEYbQwiOl_u1cgjXPQ-65">
          <mxGeometry relative="1" as="geometry" />
        </mxCell>
        <mxCell id="pEeEYbQwiOl_u1cgjXPQ-51" value="注册" style="whiteSpace=wrap;html=1;" vertex="1" parent="1">
          <mxGeometry x="610" y="450" width="120" height="60" as="geometry" />
        </mxCell>
        <mxCell id="pEeEYbQwiOl_u1cgjXPQ-53" value="会员号" style="ellipse;whiteSpace=wrap;html=1;" vertex="1" parent="1">
          <mxGeometry x="1040" y="340" width="120" height="60" as="geometry" />
        </mxCell>
        <mxCell id="pEeEYbQwiOl_u1cgjXPQ-55" value="会员名称" style="ellipse;whiteSpace=wrap;html=1;" vertex="1" parent="1">
          <mxGeometry x="1040" y="590" width="120" height="60" as="geometry" />
        </mxCell>
        <mxCell id="pEeEYbQwiOl_u1cgjXPQ-58" value="会员积分" style="ellipse;whiteSpace=wrap;html=1;" vertex="1" parent="1">
          <mxGeometry x="1210" y="340" width="120" height="80" as="geometry" />
        </mxCell>
        <mxCell id="pEeEYbQwiOl_u1cgjXPQ-60" value="电子邮箱" style="ellipse;whiteSpace=wrap;html=1;" vertex="1" parent="1">
          <mxGeometry x="860" y="610" width="110" height="80" as="geometry" />
        </mxCell>
        <mxCell id="pEeEYbQwiOl_u1cgjXPQ-62" value="联系方式" style="ellipse;whiteSpace=wrap;html=1;" vertex="1" parent="1">
          <mxGeometry x="1260" y="620" width="120" height="80" as="geometry" />
        </mxCell>
        <mxCell id="pEeEYbQwiOl_u1cgjXPQ-64" value="称昵" style="ellipse;whiteSpace=wrap;html=1;" vertex="1" parent="1">
          <mxGeometry x="827" y="320" width="120" height="80" as="geometry" />
        </mxCell>
        <mxCell id="pEeEYbQwiOl_u1cgjXPQ-68" value="" style="edgeStyle=orthogonalEdgeStyle;rounded=0;orthogonalLoop=1;jettySize=auto;html=1;" edge="1" parent="1" source="pEeEYbQwiOl_u1cgjXPQ-65" target="pEeEYbQwiOl_u1cgjXPQ-67">
          <mxGeometry relative="1" as="geometry" />
        </mxCell>
        <mxCell id="pEeEYbQwiOl_u1cgjXPQ-70" value="" style="edgeStyle=orthogonalEdgeStyle;rounded=0;orthogonalLoop=1;jettySize=auto;html=1;" edge="1" parent="1" source="pEeEYbQwiOl_u1cgjXPQ-65" target="pEeEYbQwiOl_u1cgjXPQ-69">
          <mxGeometry relative="1" as="geometry" />
        </mxCell>
        <mxCell id="pEeEYbQwiOl_u1cgjXPQ-65" value="用户" style="whiteSpace=wrap;html=1;" vertex="1" parent="1">
          <mxGeometry x="610" y="590" width="120" height="60" as="geometry" />
        </mxCell>
        <mxCell id="pEeEYbQwiOl_u1cgjXPQ-67" value="账号" style="ellipse;whiteSpace=wrap;html=1;" vertex="1" parent="1">
          <mxGeometry x="410" y="590" width="120" height="60" as="geometry" />
        </mxCell>
        <mxCell id="pEeEYbQwiOl_u1cgjXPQ-69" value="密码" style="ellipse;whiteSpace=wrap;html=1;" vertex="1" parent="1">
          <mxGeometry x="610" y="730" width="120" height="60" as="geometry" />
        </mxCell>
      </root>
    </mxGraphModel>
  </diagram>
</mxfile>
